#!OML:ASF F:\VICON\USERDATA\INSTALL\Justin_Nancy\Justin_Nancy.ASF
:FULLY-SPECIFIED
:DEGREES
175
root 7.83799 17.7121 -5.4439 0.768605 -26.2189 3.70129
lowerback 5.68641 -1.07627 -3.79447
upperback -0.0578139 -1.61526 2.32199
thorax -3.07881 -0.731373 4.67492
lowerneck -15.0062 -3.69947 -9.98886
upperneck 24.9907 -4.04676 4.97008
head 10.8516 -2.24939 2.91576
rclavicle -1.64991e-014 9.54166e-015
rhumerus -33.9449 -18.2339 -75.7064
rradius 26.7141
rwrist 11.2008
rhand -10.4246 17.6313
rfingers 7.12502
rthumb 15.5747 -11.7615
lclavicle -1.64991e-014 9.54166e-015
lhumerus -29.2627 14.0397 81.5996
lradius 29.4343
lwrist -7.44876
lhand -16.9592 25.4464
lfingers 7.12502
lthumb 9.27475 55.2224
rfemur -15.3374 -1.55768 28.7395
rtibia 15.6412
rfoot -1.04286 -9.00932
rtoes 19.6854
lfemur -6.05548 5.86787 -22.4592
ltibia 50.0281
lfoot 12.9972 -12.9502
ltoes 6.2469
176
root 7.78689 17.7223 -5.33121 0.762334 -27.0436 3.37024
lowerback 5.7242 -0.90477 -3.40321
upperback 0.0401918 -1.36187 2.3199
thorax -3.03457 -0.614074 4.43016
lowerneck -14.8112 -3.85716 -10.1536
upperneck 24.7628 -4.26879 5.07049
head 10.7555 -2.35326 2.94693
rclavicle -6.64935e-014 -9.54166e-015
rhumerus -33.7821 -18.5686 -75.6585
rradius 26.7649
rwrist 11.815
rhand -10.6589 16.6107
rfingers 7.12502
rthumb 15.349 -12.7996
lclavicle -6.64935e-014 -9.54166e-015
lhumerus -29.2505 13.7883 81.6774
lradius 29.1941
lwrist -8.15851
lhand -16.7435 25.3678
lfingers 7.12502
lthumb 9.48283 55.1345
rfemur -14.3668 -1.36378 29.1178
rtibia 15.0441
rfoot -1.22197 -8.52828
rtoes 20.6698
lfemur -6.9119 6.13828 -21.9255
ltibia 51.8507
lfoot 13.0599 -13.527
ltoes 12.6351
177
root 7.73691 17.7351 -5.21252 0.723923 -27.7892 3.02264
lowerback 5.60784 -0.836689 -2.92744
upperback 0.265078 -1.23997 2.26075
thorax -2.75978 -0.5706 4.08222
lowerneck -15.006 -4.09558 -10.1287
upperneck 24.5839 -4.59113 5.0923
head 10.7562 -2.48903 2.8999
rclavicle 4.67144e-015 7.15625e-015
rhumerus -33.4277 -18.5802 -75.8669
rradius 26.7407
rwrist 11.9393
rhand -10.8125 16.4586
rfingers 7.12502
rthumb 15.2011 -12.963
lclavicle 4.67144e-015 7.15625e-015
lhumerus -29.0481 13.2521 81.7152
lradius 29.1167
lwrist -7.95967
lhand -16.4394 26.0532
lfingers 7.12502
lthumb 9.77629 55.8063
rfemur -13.4393 -1.2852 29.493
rtibia 14.6752
rfoot -1.60634 -8.20277
rtoes 22.02
lfemur -7.75834 6.28235 -21.3514
ltibia 53.5347
lfoot 12.6817 -12.3535
ltoes 5.10617
178
root 7.68759 17.7418 -5.09673 0.612373 -28.5747 2.82655
lowerback 5.65704 -0.741272 -2.73843
upperback 0.395116 -1.10318 2.24009
thorax -2.66937 -0.508952 3.94235
lowerneck -15.408 -4.32552 -10.1622
upperneck 24.5776 -4.9195 5.29681
head 10.8676 -2.6111 2.9278
rclavicle -4.34344e-014 -1.98785e-014
rhumerus -33.2088 -18.3034 -76.1091
rradius 26.972
rwrist 11.7676
rhand -10.7479 16.8651
rfingers 7.12502
rthumb 15.2634 -12.5517
lclavicle -4.34344e-014 -1.98785e-014
lhumerus -29.2314 12.9934 81.7843
lradius 29.1581
lwrist -7.89313
lhand -16.2718 25.6827
lfingers 7.12502
lthumb 9.93792 55.4281
rfemur -12.701 -0.954461 29.6956
rtibia 14.6641
rfoot -2.04718 -7.95419
rtoes 21.7843
lfemur -8.50161 6.33406 -20.9879
ltibia 55.0618
lfoot 11.3616 -10.2331
ltoes 7.4684
179
root 7.64315 17.7288 -4.99151 0.591624 -29.486 2.69413
lowerback 5.81848 -0.614161 -2.74344
upperback 0.379954 -0.934909 2.33053
thorax -2.78885 -0.42203 4.03016
lowerneck -15.6187 -4.46524 -10.5442
upperneck 24.3812 -5.11802 5.79967
head 10.879 -2.6709 3.14197
rclavicle -5.31749e-014 9.54166e-015
rhumerus -32.9914 -17.538 -76.5585
rradius 27.5567
rwrist 11.2848
rhand -11.2245 15.7453
rfingers 7.12502
rthumb 14.8042 -13.7059
lclavicle -5.31749e-014 9.54166e-015
lhumerus -29.6006 13.2335 81.876
lradius 29.2352
lwrist -8.1965
lhand -16.2155 25.5528
lfingers 7.12502
lthumb 9.99221 55.2956
rfemur -12.2906 -0.435601 29.8399
rtibia 14.9528
rfoot -2.54434 -7.62263
rtoes 21.6694
lfemur -9.23669 6.55252 -20.7327
ltibia 56.4495
lfoot 9.4057 -8.87119
ltoes -3.51104
180
root 7.59868 17.7149 -4.89665 0.539247 -30.322 2.67437
lowerback 6.02009 -0.500459 -2.87749
upperback 0.363415 -0.79454 2.39247
thorax -2.92904 -0.346934 4.16377
lowerneck -16.2201 -4.60035 -10.7042
upperneck 24.5152 -5.27173 6.05417
head 11.0736 -2.7166 3.23462
rclavicle -2.08724e-015 9.54166e-015
rhumerus -32.5916 -16.5155 -77.2468
rradius 28.2493
rwrist 10.1247
rhand -11.8192 13.2691
rfingers 7.12502
rthumb 14.2312 -16.2233
lclavicle -2.08724e-015 9.54166e-015
lhumerus -29.9092 13.8725 81.8454
lradius 29.2214
lwrist -8.82589
lhand -16.4066 25.47
lfingers 7.12502
lthumb 9.80787 55.2216
rfemur -11.9974 0.131502 29.8946
rtibia 15.3097
rfoot -2.95593 -7.36371
rtoes 21.1009
lfemur -10.0732 6.79481 -20.5098
ltibia 57.7424
lfoot 7.6979 -8.4284
ltoes -12.7107
181
root 7.55056 17.7121 -4.79808 0.411687 -31.0414 2.92042
lowerback 6.02645 -0.430547 -3.1196
upperback 0.354333 -0.720354 2.2994
thorax -2.94719 -0.306572 4.19818
lowerneck -16.8199 -4.63458 -10.6708
upperneck 24.8319 -5.31577 6.19364
head 11.3174 -2.71075 3.27247
rclavicle -1.3736e-013 -1.43125e-014
rhumerus -32.3555 -15.9223 -77.7263
rradius 28.7003
rwrist 9.449
rhand -12.1587 12.9367
rfingers 7.12502
rthumb 13.9041 -16.5784
lclavicle -1.3736e-013 -1.43125e-014
lhumerus -30.0928 14.0923 81.7846
lradius 29.0436
lwrist -8.97831
lhand -17.0093 25.1728
lfingers 7.12502
lthumb 9.2264 54.9509
rfemur -11.693 0.530855 29.6815
rtibia 15.5909
rfoot -3.35185 -7.1381
rtoes 20.7977
lfemur -11.007 6.89191 -20.5811
ltibia 58.9136
lfoot 6.47266 -7.14422
ltoes -15.2141
